# File created by Blade
# Date/Time:  Wed Jan 21 14:58:10 2015
# Frame Rate: 120.000 fps
#------------------------------------------------------
:FULLY-SPECIFIED
:DEGREES
593
root 17.847528 35.252326 -21.665208 -162.181910 61.456726 -165.880248
Spine -12.682405 -50.014867 5.598589
Head 22.166174 -39.178782 1.752729
LeftShoulder 5.392961 -37.392685 11.876416
LeftArm 20.242522 15.459068 -30.687508
LeftForeArm 13.674126 -0.000000 -1.559032
LeftHand -11.560712 -0.000000 -1.432884
LeftHandThumb1 -26.253704 0.000000 33.147579
RightShoulder -19.136797 -13.553332 -13.479246
RightArm -18.191380 35.934052 18.257946
RightForeArm -33.714886 -0.000000 5.941298
RightHand -8.829506 -0.000000 7.418033
RightHandThumb1 -24.326973 -0.000000 -32.862282
LeftUpLeg 9.089650 42.953641 6.342693
LeftLeg -2.882902 -0.000000 0.000000
LeftFoot -33.421047 47.364679 -24.014362
LeftToeBase 21.636713 -0.000000 -0.000000
RightUpLeg -16.115434 24.555396 -0.330171
RightLeg 2.973406 -0.000000 -0.000000
RightFoot -4.126916 6.277847 18.438372
RightToeBase 29.619217 -0.000000 -0.000000
594
root 17.843590 35.251715 -21.658264 -162.015539 61.776480 -165.654105
Spine -12.486043 -50.453199 5.445894
Head 22.230754 -39.244904 1.778234
LeftShoulder 5.635969 -37.494570 11.788086
LeftArm 20.644629 15.495222 -31.121752
LeftForeArm 13.593057 -0.000000 -1.522481
LeftHand -11.675832 0.000000 -1.298328
LeftHandThumb1 -26.253704 0.000000 33.147579
RightShoulder -19.066413 -13.702490 -13.589034
RightArm -18.553628 35.960498 18.415392
RightForeArm -33.572721 0.000000 5.938781
RightHand -8.999892 -0.000000 7.486787
RightHandThumb1 -24.326973 -0.000000 -32.862282
LeftUpLeg 9.125634 42.875052 6.357100
LeftLeg -2.784561 -0.000000 0.000000
LeftFoot -33.533909 47.541019 -24.073213
LeftToeBase 21.412733 -0.000000 -0.000000
RightUpLeg -16.081207 24.588767 -0.243844
RightLeg 2.933027 -0.000000 -0.000000
RightFoot -3.918599 6.508818 18.611166
RightToeBase 29.774146 -0.000000 -0.000000
595
root 17.840836 35.249606 -21.653054 -161.850383 62.104812 -165.411487
Spine -12.255335 -50.863644 5.293452
Head 22.230860 -39.261232 1.820390
LeftShoulder 5.837512 -37.719404 11.725601
LeftArm 20.955439 15.548406 -31.616281
LeftForeArm 13.682500 -0.000000 -1.462205
LeftHand -11.678331 0.000000 -1.433911
LeftHandThumb1 -26.253704 0.000000 33.147579
RightShoulder -18.979089 -13.684800 -13.893543
RightArm -18.937287 35.894209 18.696352
RightForeArm -33.421380 0.000000 6.015119
RightHand -9.350702 -0.000000 7.509134
RightHandThumb1 -24.326973 -0.000000 -32.862282
LeftUpLeg 9.197886 42.829252 6.396470
LeftLeg -2.699795 -0.000000 0.000000
LeftFoot -33.658262 47.777034 -24.095634
LeftToeBase 21.364181 -0.000000 -0.000000
RightUpLeg -16.039284 24.597626 -0.146573
RightLeg 2.914851 -0.000000 -0.000000
RightFoot -3.704249 6.816189 18.747708
RightToeBase 29.903774 -0.000000 -0.000000
596
root 17.840240 35.248408 -21.651136 -161.674408 62.443241 -165.146546
Spine -12.002339 -51.209040 5.108035
Head 22.305976 -39.352448 1.818466
LeftShoulder 6.023433 -37.808611 11.653919
LeftArm 21.452825 15.623585 -32.037662
LeftForeArm 13.825713 -0.000000 -1.550178
LeftHand -11.448676 -0.000000 -1.386523
LeftHandThumb1 -26.253704 0.000000 33.147579
RightShoulder -18.917127 -13.798035 -14.035729
RightArm -19.208637 35.884050 18.889649
RightForeArm -33.253333 -0.000000 5.927873
RightHand -9.614955 -0.000000 7.320302
RightHandThumb1 -24.326973 -0.000000 -32.862282
LeftUpLeg 9.287454 42.739901 6.444534
LeftLeg -2.612115 -0.000000 0.000000
LeftFoot -33.833827 48.048337 -24.208387
LeftToeBase 21.295612 -0.000000 -0.000000
RightUpLeg -15.965483 24.633938 -0.046639
RightLeg 2.859039 -0.000000 -0.000000
RightFoot -3.480659 7.096124 18.887847
RightToeBase 30.167298 -0.000000 -0.000000
597
root 17.839056 35.246653 -21.647474 -161.512109 62.772046 -164.887869
Spine -11.713340 -51.540144 4.897754
Head 22.287759 -39.384623 1.869725
LeftShoulder 6.215647 -37.927318 11.579111
LeftArm 21.853539 15.803656 -32.407770
LeftForeArm 13.848678 -0.000000 -1.389216
LeftHand -11.575645 0.000000 -1.285418
LeftHandThumb1 -26.253704 0.000000 33.147579
RightShoulder -18.885761 -13.997250 -14.159593
RightArm -19.394796 36.000551 19.125292
RightForeArm -33.160753 0.000000 5.890907
RightHand -9.755739 -0.000000 7.470572
RightHandThumb1 -24.326973 -0.000000 -32.862282
LeftUpLeg 9.375485 42.621060 6.493115
LeftLeg -2.513703 -0.000000 0.000000
LeftFoot -34.017812 48.354225 -24.311763
LeftToeBase 21.269808 -0.000000 -0.000000
RightUpLeg -15.892834 24.674105 0.057994
RightLeg 2.830359 -0.000000 -0.000000
RightFoot -3.296276 7.308572 19.061833
RightToeBase 30.404415 -0.000000 -0.000000
